<svg fill="none" height="597" width="2786" xmlns="http://www.w3.org/2000/svg"><g fill="#004680"><path d="m837 198v183c0 53-25 76-77 76-54 0-67-33-67-73v-11h47v8c0 27 5 40 23 40 19 0 23-13 23-40v-183zm78 0v176c0 25 6 45 30 45s29-18 29-45v-176h50v176c0 65-40 82-81 82s-81-14-81-82v-176zm140 255v-255h51v212h77v41zm157 0v-255h50v255zm130-255v176c0 25 6 45 29 45 25 0 30-18 30-45v-176h50v176c0 65-40 82-81 82-42 0-81-14-81-82v-176zm183 175v8c0 24 6 40 34 40 15 0 31-11 31-31 0-23-13-32-46-43-47-16-67-34-67-77 0-49 31-75 79-75 46 0 78 20 78 69v8h-49c0-25-8-39-28-39-23 0-29 14-29 29 0 16 5 25 26 34l40 17c39 17 49 37 49 68 0 53-32 78-89 78-58 0-81-28-81-74v-11h52zm183-175h86c41 0 72 15 72 64 0 28-14 50-38 56 27 4 46 24 46 58 0 40-20 74-80 74h-86zm52 104h15c28 0 42-9 42-33 0-25-12-34-37-34h-18zm0 112h20c25 0 41-9 41-38s-16-38-38-38h-21zm281-216v41h-90v60h78v42h-78v69h93v41h-146v-253zm28 0h95c41 0 68 21 68 66 0 34-14 57-43 63 35 4 39 24 41 78 0 26 3 48 3 48h-52l-2-26-1-49c0-20-9-33-31-33h-28v108h-50zm52 112h21c25 0 39-11 39-38 0-23-12-36-35-36h-25zm501-112h95c41 0 67 21 67 66 0 34-13 57-43 63 36 4 40 24 42 78 0 26 3 48 3 48h-52l-2-26-1-49c0-20-10-33-31-33h-28v108h-50zm52 112h21c25 0 39-11 39-38 0-23-13-36-36-36h-24zm-303-35c0-19-9-43-29-43-24 0-35 26-35 89 0 61 6 100 35 100 12 0 32-14 32-40v-28h-33v-38h83v136h-39v-21a58 58 0 0 1 -54 29c-63 0-75-48-75-135 0-86 20-129 86-129 57 0 78 29 78 80zm223-77v41h-91v60h79v42h-79v69h94v41h-146v-253zm-2046-198h-499c-27 0-49 21-49 49v499c0 26 22 49 49 49h499c26 0 49-21 49-49v-499c-1-28-23-49-49-49zm22 548c0 12-9 21-22 21h-499c-12 0-21-9-21-21v-499c0-12 9-21 21-21h499c13 0 22 9 22 21z"/><path d="m318 266c11-2 20-5 26-11s9-14 9-25c0-9-3-18-7-24-7-6-14-10-25-11-6 0-25-2-55-2h-36v74h42zm20 58c-9-3-28-5-57-5h-51v85h59c23 0 37 0 44-2 9-1 17-6 23-12s10-16 10-28c0-9-2-17-7-24-6-7-12-11-21-14z"/><path d="m515 63h-432c-12 0-22 9-22 21v432c0 12 10 21 22 21h432c12 0 21-11 21-21v-432c0-12-9-21-21-21zm-94 344c-6 14-16 24-28 32s-26 14-43 15c-11 2-37 2-77 2h-107v-315h126c24 0 43 2 55 3 12 2 23 6 32 13a73 73 0 0 1 34 63c0 15-4 27-12 41-8 12-19 21-32 28 20 6 33 15 44 29 11 13 15 29 15 47 2 14-1 29-7 42z"/></g></svg>